<?xml version="1.0" standalone="no"?>
<!DOCTYPE svg PUBLIC "-//W3C//DTD SVG 20010904//EN"
 "http://www.w3.org/TR/2001/REC-SVG-20010904/DTD/svg10.dtd">
<svg version="1.0" xmlns="http://www.w3.org/2000/svg"
 width="512.000000pt" height="512.000000pt" viewBox="0 0 512.000000 512.000000"
 preserveAspectRatio="xMidYMid meet">
<metadata>
Created by potrace 1.14, written by Peter Selinger 2001-2017
</metadata>
<g transform="translate(0.000000,512.000000) scale(0.100000,-0.100000)"
fill="#000000" stroke="none">
<path d="M3344 4872 c-5 -4 -27 -61 -47 -127 -21 -66 -42 -124 -47 -129 -10
-10 -71 -34 -105 -42 -12 -3 -66 19 -134 55 -95 50 -117 58 -130 48 -37 -28
-84 -74 -107 -104 l-24 -32 51 -98 c29 -54 56 -102 60 -107 14 -15 11 -35 -13
-97 l-22 -56 -125 -38 c-69 -22 -129 -44 -133 -49 -4 -6 -6 -52 -6 -103 l1
-92 41 -15 c23 -8 82 -27 131 -42 l90 -26 26 -63 c15 -35 23 -67 19 -72 -4 -4
-33 -57 -63 -117 -54 -105 -56 -109 -39 -130 39 -48 68 -78 98 -101 l32 -25
99 51 c54 28 102 55 107 60 15 14 35 11 96 -13 l56 -21 39 -126 c21 -69 44
-129 49 -133 6 -4 51 -6 100 -5 l91 2 16 35 c9 19 28 78 44 130 l28 95 62 26
c39 16 67 22 76 17 8 -5 61 -33 118 -63 l104 -54 27 19 c44 31 119 121 114
135 -3 7 -30 60 -60 117 -57 106 -57 111 -31 183 19 50 28 55 162 96 61 18
113 38 117 43 8 11 8 173 1 193 -3 7 -10 13 -15 13 -5 0 -63 17 -127 37 l-117
37 -23 59 c-27 67 -27 65 56 221 49 90 51 80 -39 168 -68 65 -52 66 -192 -9
-106 -57 -108 -58 -176 -31 -46 17 -60 28 -65 48 -16 66 -70 226 -79 232 -5 3
-48 6 -96 6 -48 0 -91 -3 -96 -6z m176 -564 c81 -21 148 -71 192 -143 32 -51
41 -86 44 -158 6 -147 -85 -270 -230 -312 -148 -43 -307 29 -376 170 -34 71
-34 199 -1 267 70 143 220 214 371 176z"/>
<path d="M4377 4618 c-21 -106 -40 -204 -42 -218 -3 -14 -7 -34 -10 -45 -3
-14 1 -21 13 -22 9 -1 45 -8 79 -16 l61 -15 6 32 c3 17 8 42 11 56 3 14 9 44
14 68 5 24 11 45 14 48 14 14 87 -218 104 -331 9 -63 10 -273 1 -340 -23 -176
-97 -364 -203 -519 -25 -38 -45 -69 -43 -70 2 -2 29 -24 61 -50 l59 -47 32 43
c72 96 138 220 184 348 41 112 47 138 70 280 14 89 5 411 -13 440 -2 4 -7 22
-10 41 -8 48 -51 179 -80 244 -15 35 -20 55 -12 55 7 -1 50 -9 97 -19 47 -10
88 -16 92 -12 3 3 9 20 12 36 10 57 17 90 21 103 2 6 2 12 -1 12 -3 0 -83 16
-177 35 -171 34 -201 40 -267 51 l-35 6 -38 -194z"/>
<path d="M1843 4004 c-29 -29 -53 -57 -53 -62 0 -4 20 -28 45 -52 25 -24 45
-47 45 -50 0 -3 -60 -5 -134 -4 -587 4 -1162 -259 -1558 -714 l-28 -31 62 -50
61 -50 101 102 c137 139 209 199 351 290 207 133 511 246 730 272 28 4 57 9
65 11 25 9 340 15 340 7 0 -4 -20 -28 -44 -53 l-43 -45 57 -56 58 -57 148 149
149 149 -150 149 -150 149 -52 -54z"/>
<path d="M1642 3266 c-5 -6 -23 -78 -41 -161 -18 -82 -36 -153 -40 -158 -4 -4
-18 -10 -32 -12 -57 -11 -126 -29 -157 -42 l-33 -14 -54 58 c-30 32 -74 81
-97 109 -24 28 -53 58 -65 68 -21 15 -24 15 -70 -10 -37 -20 -128 -74 -151
-90 -4 -3 6 -38 57 -196 l40 -127 -86 -85 -87 -86 -152 50 c-84 28 -156 50
-161 50 -5 0 -35 -45 -67 -100 l-57 -101 23 -28 c13 -15 43 -44 68 -64 25 -21
71 -61 102 -91 l57 -54 -18 -49 c-10 -28 -21 -65 -25 -84 -3 -19 -8 -45 -11
-58 -2 -14 -8 -28 -12 -32 -5 -4 -75 -22 -158 -40 -82 -18 -155 -36 -161 -41
-16 -12 -17 -224 -1 -236 7 -5 82 -24 167 -42 85 -18 156 -34 157 -35 1 -1 5
-19 9 -41 3 -21 16 -72 29 -113 l24 -73 -52 -49 c-29 -27 -82 -75 -119 -107
-36 -31 -69 -63 -72 -69 -8 -18 101 -213 119 -213 6 0 77 23 159 50 83 27 151
48 153 47 36 -28 172 -174 170 -182 -14 -37 -97 -295 -97 -302 0 -9 100 -70
169 -104 39 -19 41 -19 58 -1 16 15 154 170 192 214 12 14 19 14 50 4 20 -7
73 -21 118 -32 46 -10 83 -23 84 -29 1 -15 5 -35 35 -173 15 -70 33 -132 41
-139 20 -16 219 -16 231 0 5 7 24 83 42 169 l33 157 41 7 c23 3 75 17 117 29
l76 22 36 -41 c20 -23 71 -79 114 -125 l78 -83 45 24 c25 13 71 39 103 58 68
41 67 25 1 223 -24 72 -43 132 -41 133 1 2 39 41 84 88 l83 85 127 -41 c199
-63 195 -61 205 -46 47 71 107 189 102 199 -3 8 -36 40 -72 72 -124 107 -174
156 -167 167 8 13 43 135 51 174 2 16 7 33 10 37 4 7 50 18 134 34 32 6 115
24 161 36 l36 9 1 115 c0 125 -2 130 -58 140 -19 3 -75 15 -125 26 -49 12
-103 23 -120 26 -16 3 -30 6 -31 6 -1 1 -10 40 -21 87 -12 47 -25 99 -31 115
-9 30 -7 33 108 135 65 58 121 111 124 118 3 7 -4 29 -15 50 -56 100 -94 162
-100 162 -7 0 -274 -85 -304 -97 -8 -2 -148 128 -183 171 -1 2 6 28 17 57 32
90 84 259 80 263 -11 9 -95 60 -145 87 -55 29 -57 30 -78 12 -11 -10 -23 -21
-26 -25 -3 -3 -33 -38 -68 -77 -35 -38 -75 -83 -89 -100 -26 -29 -26 -29 -72
-15 -25 8 -59 19 -76 24 -16 5 -49 12 -72 16 -24 4 -43 12 -44 18 -1 14 -1 14
-34 171 -15 72 -31 135 -36 141 -12 15 -226 16 -237 0z m263 -721 c330 -64
575 -309 640 -640 24 -120 7 -327 -34 -420 -5 -11 -17 -38 -26 -60 -28 -64
-98 -166 -151 -221 -85 -86 -167 -140 -299 -195 -55 -24 -150 -41 -242 -45
-404 -16 -740 253 -821 659 -15 74 -8 252 13 332 77 300 322 531 625 590 86
16 209 16 295 0z"/>
<path d="M4067 2852 c-8 -15 -22 -53 -32 -86 -18 -58 -19 -59 -84 -88 -35 -16
-69 -27 -75 -24 -6 2 -45 20 -87 39 l-76 35 -61 -61 -60 -62 39 -85 40 -85
-28 -63 -28 -64 -85 -31 -85 -32 -2 -83 c-2 -94 -6 -89 106 -126 l65 -23 29
-65 29 -65 -40 -84 -40 -84 62 -62 62 -62 82 41 c80 39 84 39 115 25 18 -9 44
-18 59 -22 35 -9 41 -17 67 -94 35 -102 30 -98 120 -99 54 -1 83 3 88 11 4 6
19 46 33 87 l26 74 66 29 65 28 83 -39 84 -40 62 61 63 62 -40 84 -39 85 22
55 c27 69 34 75 117 102 36 12 71 26 78 31 7 5 11 40 11 89 0 91 4 86 -107
123 l-65 23 -29 66 -29 66 41 82 41 83 -63 62 -63 63 -83 -40 -83 -41 -66 29
-65 29 -27 75 c-15 42 -30 80 -33 86 -3 5 -42 10 -86 11 -78 1 -81 1 -94 -26z
m169 -467 c96 -28 158 -116 159 -225 0 -139 -94 -234 -235 -235 -270 -1 -330
366 -76 462 43 16 94 16 152 -2z"/>
</g>
</svg>
