<?xml version="1.0" encoding="utf-8"?><svg viewBox="0 0 30 30" xmlns="http://www.w3.org/2000/svg" xmlns:xlink="http://www.w3.org/1999/xlink"><style>:root>svg{display:none}:root>svg:target{display:block}</style><svg viewBox="0 0 20 20" id="add" xmlns="http://www.w3.org/2000/svg"><g clip-path="url(#aa)"><path d="M18.214 8.214h-6.071a.357.357 0 01-.357-.357V1.786a1.786 1.786 0 00-3.572 0v6.071c0 .197-.16.357-.357.357H1.786a1.786 1.786 0 000 3.572h6.071c.197 0 .357.16.357.357v6.071a1.786 1.786 0 003.572 0v-6.071c0-.197.16-.357.357-.357h6.071a1.786 1.786 0 000-3.572z"/></g><defs><clipPath id="aa"><path d="M0 0h20v20H0z"/></clipPath></defs></svg><svg viewBox="0 0 30 30" id="calendar" xmlns="http://www.w3.org/2000/svg"><g clip-path="url(#ba)"><path d="M26.484 2.344h-1.406V0h-2.344v2.344H7.266V0H4.922v2.344H3.516A3.52 3.52 0 000 5.859v20.625A3.52 3.52 0 003.516 30h22.968A3.52 3.52 0 0030 26.484V5.86a3.52 3.52 0 00-3.516-3.515zm1.172 24.14c0 .646-.525 1.172-1.172 1.172H3.516a1.173 1.173 0 01-1.172-1.172V11.016h25.312v15.468zm0-17.812H2.344V5.859c0-.646.525-1.171 1.172-1.171h1.406V7.03h2.344V4.688h15.468V7.03h2.344V4.688h1.406c.646 0 1.172.525 1.172 1.171v2.813z"/><path d="M6.797 13.477H4.453v2.343h2.344v-2.343zm4.687 0H9.141v2.343h2.343v-2.343zm4.688 0h-2.344v2.343h2.344v-2.343zm4.688 0h-2.344v2.343h2.343v-2.343zm4.687 0h-2.344v2.343h2.344v-2.343zm-18.75 4.687H4.453v2.344h2.344v-2.344zm4.687 0H9.141v2.344h2.343v-2.344zm4.688 0h-2.344v2.344h2.344v-2.344zm4.688 0h-2.344v2.344h2.343v-2.344zM6.797 22.852H4.453v2.343h2.344v-2.343zm4.687 0H9.141v2.343h2.343v-2.343zm4.688 0h-2.344v2.343h2.344v-2.343zm4.688 0h-2.344v2.343h2.343v-2.343zm4.687-4.688h-2.344v2.344h2.344v-2.344z"/></g><defs><clipPath id="ba"><path d="M0 0h30v30H0z"/></clipPath></defs></svg><svg viewBox="0 0 30 30" id="call" xmlns="http://www.w3.org/2000/svg"><g clip-path="url(#ca)"><path d="M27.593 19.692c-1.837 0-3.64-.288-5.35-.852-.837-.286-1.866-.024-2.377.5l-3.373 2.547C12.58 19.8 10.17 17.39 8.11 13.507l2.472-3.285a2.425 2.425 0 00.596-2.457 17.062 17.062 0 01-.855-5.358A2.41 2.41 0 007.917 0h-5.51A2.41 2.41 0 000 2.407C0 17.622 12.378 30 27.593 30A2.41 2.41 0 0030 27.593v-5.494a2.41 2.41 0 00-2.407-2.407z"/></g><defs><clipPath id="ca"><path d="M0 0h30v30H0z"/></clipPath></defs></svg><svg viewBox="0 0 25 25" id="facebook" xmlns="http://www.w3.org/2000/svg"><g clip-path="url(#da)"><path d="M25 12.5C25 5.596 19.404 0 12.5 0S0 5.596 0 12.5 5.596 25 12.5 25c.073 0 .146 0 .22-.005V15.27h-2.686v-3.13h2.686V9.834c0-2.67 1.63-4.126 4.013-4.126 1.143 0 2.124.083 2.408.122v2.793H17.5c-1.294 0-1.548.615-1.548 1.519v1.992h3.1l-.404 3.13h-2.696v9.253C21.177 23.017 25 18.208 25 12.5z"/></g><defs><clipPath id="da"><path d="M0 0h25v25H0z"/></clipPath></defs></svg><svg viewBox="0 0 25 25" id="instagram" xmlns="http://www.w3.org/2000/svg"><g clip-path="url(#ea)"><path d="M14.893 12.5a2.393 2.393 0 11-4.786 0 2.393 2.393 0 014.786 0z"/><path d="M18.095 8.267a2.224 2.224 0 00-.537-.825 2.222 2.222 0 00-.825-.537c-.253-.099-.633-.215-1.333-.247-.757-.035-.984-.042-2.9-.042-1.917 0-2.144.007-2.9.041-.7.033-1.08.15-1.333.248a2.22 2.22 0 00-.825.537 2.225 2.225 0 00-.538.825c-.098.253-.215.633-.247 1.333-.034.757-.042.984-.042 2.9 0 1.917.008 2.144.042 2.9.032.7.15 1.08.247 1.333.116.312.299.594.537.826.232.238.514.422.826.537.253.098.633.215 1.333.247.756.034.983.042 2.9.042 1.917 0 2.144-.008 2.9-.042.7-.032 1.08-.149 1.333-.247a2.377 2.377 0 001.362-1.363c.099-.253.216-.632.248-1.332.034-.757.041-.984.041-2.9 0-1.917-.007-2.144-.041-2.901-.032-.7-.15-1.08-.248-1.333zM12.5 16.186a3.686 3.686 0 110-7.372 3.686 3.686 0 010 7.372zm3.831-6.656a.861.861 0 110-1.723.861.861 0 010 1.723z"/><path d="M12.5 0C5.598 0 0 5.598 0 12.5S5.598 25 12.5 25 25 19.402 25 12.5 19.402 0 12.5 0zm7.134 15.46c-.034.763-.156 1.285-.333 1.742a3.67 3.67 0 01-2.1 2.099c-.456.177-.978.299-1.742.333-.765.035-1.01.044-2.959.044-1.95 0-2.194-.009-2.96-.044-.763-.035-1.285-.156-1.741-.333a3.516 3.516 0 01-1.272-.828 3.518 3.518 0 01-.828-1.271c-.177-.457-.299-.979-.333-1.743-.036-.765-.044-1.01-.044-2.959 0-1.95.008-2.194.044-2.96.034-.763.156-1.285.333-1.742.18-.479.463-.912.828-1.27a3.516 3.516 0 011.271-.829c.457-.177.979-.299 1.743-.333.765-.035 1.01-.044 2.959-.044 1.95 0 2.194.009 2.96.044.763.034 1.285.156 1.742.333.478.18.912.463 1.271.828.365.359.648.792.828 1.271.177.457.299.979.334 1.743.034.765.043 1.01.043 2.959 0 1.95-.009 2.194-.044 2.96z"/></g><defs><clipPath id="ea"><path d="M0 0h25v25H0z"/></clipPath></defs></svg><svg viewBox="0 0 25 25" id="linkedin" xmlns="http://www.w3.org/2000/svg"><g clip-path="url(#fa)"><path d="M12.5 0C5.598 0 0 5.598 0 12.5S5.598 25 12.5 25 25 19.402 25 12.5 19.402 0 12.5 0zM8.868 18.896H5.823V9.739h3.045v9.159zM7.346 8.486h-.02c-1.022 0-1.683-.702-1.683-1.581 0-.899.681-1.583 1.723-1.583 1.041 0 1.682.684 1.702 1.583 0 .879-.66 1.582-1.722 1.582zm12.499 10.41H16.8v-4.9c0-1.23-.44-2.07-1.542-2.07-.841 0-1.342.566-1.562 1.113-.08.196-.1.469-.1.743v5.114h-3.045s.04-8.3 0-9.158h3.045v1.296c.404-.624 1.128-1.511 2.743-1.511 2.003 0 3.505 1.309 3.505 4.122v5.252z"/></g><defs><clipPath id="fa"><path d="M0 0h25v25H0z"/></clipPath></defs></svg><svg viewBox="0 0 30 30" id="maps-and-flags" xmlns="http://www.w3.org/2000/svg"><path d="M15 0C9.01 0 4.135 4.874 4.135 10.865c0 7.435 9.723 18.35 10.137 18.81a.979.979 0 001.456 0c.414-.46 10.137-11.375 10.137-18.81C25.865 4.874 20.991 0 15 0zm0 16.331a5.472 5.472 0 01-5.466-5.466A5.473 5.473 0 0115 5.398a5.473 5.473 0 015.466 5.467A5.473 5.473 0 0115 16.33z"/></svg></svg>